<svg id="Layer_1" xmlns="http://www.w3.org/2000/svg" viewBox="0 0 87 23"><style>.st0{fill:#f8bd41}</style><path class="st0" d="M28.3 12.8c0-.3-.1-.7-.3-1l-.6-.9c-.3-.3-.6-.5-1-.6-.4-.2-.8-.3-1.2-.3-.9 0-1.6.3-2.3.8-.6.6-1 1.2-1.1 1.9h6.5zm3.9 7.4c-.8.9-1.7 1.6-2.9 2.1-1.1.5-2.3.7-3.5.7-1.2 0-2.3-.2-3.3-.6-1-.4-1.9-.9-2.6-1.7-.7-.7-1.3-1.6-1.7-2.6-.4-1-.6-2.1-.6-3.4 0-1.1.2-2.1.5-3.1.4-1 .9-1.9 1.5-2.6.7-.8 1.5-1.4 2.4-1.8.9-.4 2-.7 3.2-.7 1.1 0 2.1.2 3 .6.9.4 1.7 1 2.3 1.7.7.7 1.2 1.6 1.5 2.5.4 1 .6 2 .6 3.1 0 .5 0 .9-.1 1.2H21.6c.1.6.2 1.1.5 1.5.2.5.5.8.9 1.2.4.3.8.6 1.3.8.5.2 1 .3 1.6.3.9 0 1.7-.2 2.4-.6.7-.4 1.2-.8 1.6-1.2l2.3 2.6zM46.8 12.5c-.4-.6-1-1.1-1.7-1.4-.7-.4-1.4-.5-2.2-.5-.6 0-1.2.1-1.7.4-.5.2-.9.6-1.3 1-.3.4-.6.9-.8 1.4-.2.5-.3 1.1-.3 1.6 0 .6.1 1.2.3 1.7.2.5.5 1 .9 1.3.4.4.8.7 1.3.9.5.2 1.1.3 1.6.3.8 0 1.5-.2 2.2-.5.7-.4 1.2-.8 1.6-1.4v-4.8zm4.3 10.2h-4v-1.3c-.6.6-1.3 1-2.1 1.2-.7.2-1.5.4-2.3.4-1.2 0-2.3-.2-3.3-.7-1-.5-1.9-1.1-2.6-1.9-.6-.7-1.1-1.5-1.5-2.5-.4-.9-.5-1.9-.5-3 0-1.2.2-2.2.6-3.2.4-1 1-1.9 1.7-2.6.7-.7 1.5-1.3 2.4-1.7.9-.4 1.9-.6 3-.6.9 0 1.7.1 2.5.4.8.3 1.5.7 2.1 1.2V7h4v15.7zM68.9 19.5c-.9 1.2-2 2.1-3.1 2.7-1.2.6-2.5.8-4 .8-1.2 0-2.3-.2-3.4-.6-1-.4-1.9-1-2.7-1.7-.7-.7-1.3-1.6-1.7-2.6-.4-1-.6-2-.6-3.2 0-1.1.2-2.2.6-3.2.4-1 1-1.9 1.8-2.6.8-.7 1.6-1.3 2.7-1.7 1-.4 2.1-.6 3.4-.6 1.4 0 2.6.3 3.8.9 1.2.6 2.1 1.3 2.8 2.3l-3 2.6c-.4-.6-1-1-1.6-1.4-.6-.3-1.3-.5-2.1-.5-.6 0-1.2.1-1.7.3-.5.2-1 .5-1.3.9-.4.4-.7.8-.9 1.4-.2.5-.3 1.1-.3 1.7 0 .6.1 1.2.3 1.7.2.5.5 1 .9 1.3.4.4.8.7 1.4.9.5.2 1.1.3 1.8.3.9 0 1.6-.2 2.3-.6.6-.4 1.1-.9 1.5-1.4l3.1 2.3zM75 22.7h-4.2V0H75v8.1c.6-.5 1.2-.8 2-1.1.7-.3 1.5-.4 2.3-.4 1.1 0 2.1.2 3.1.7.9.5 1.7 1.1 2.4 1.8.5.6.9 1.4 1.2 2.2.3.8.4 1.9.4 3.3v8h-4.2v-8.3c0-.8-.1-1.4-.2-1.8-.2-.4-.4-.8-.7-1.1-.6-.6-1.4-.9-2.4-.9-.5 0-.9.1-1.3.2s-.8.3-1.1.5l-.9.6-.6.6v10.3zM4 3.9h4.1c4.1 0 4.1 2.2 4.1 2.9 0 .7 0 2.9-4.1 2.9H4V3.9zm7.8 9.2c2.9-1 4.6-3.2 4.6-6.3 0-2.1-.8-3.9-2.3-5.1C12.6.6 10.7 0 8.2 0H0v22.7h4v-9.1h3.3l4.9 9.1H17l-5.2-9.6z"/></svg>